<svg width="2606" height="544" viewBox="0 0 2606 544" fill="none" xmlns="http://www.w3.org/2000/svg">
<path d="M378.254 347.207C375.625 339.488 372.997 331.769 370.219 323.613C377.795 325.692 384.237 327.46 390.679 329.228C390.955 328.72 391.231 328.212 391.507 327.703C377.019 316.922 371.694 301.576 368.981 284.468C388.23 284.468 406.989 284.468 426.09 284.468C426.09 294.866 426.09 305.229 426.09 315.935C424.708 316.035 423.272 316.24 421.839 316.223C417.023 316.163 413.709 319.146 413.48 323.19C412.869 333.948 413.261 344.764 413.31 355.557C413.312 356.162 413.808 356.765 414.221 357.989C414.633 358.82 414.897 359.033 415.162 359.246C415.162 359.246 415.188 359.248 415.287 359.484C415.586 359.997 415.849 360.178 416.178 360.266C416.53 360.272 416.815 360.413 417.264 361.317C417.725 363.904 418.15 365.864 418.155 367.824C418.214 390.645 418.21 413.467 417.922 436.583C415.643 437.004 413.664 437.24 411.686 437.241C350.432 437.262 289.179 437.252 227.926 437.296C225.999 437.297 224.073 437.808 222.146 438.081C223.054 439.193 223.767 440.586 224.9 441.376C264.402 468.899 303.949 496.359 343.468 523.86C345.288 525.127 346.907 526.682 348.008 529.091C347.063 528.816 346.066 528.657 345.182 528.25C272.87 495.009 203.849 456.099 140.163 408.176C100.691 378.474 65.4487 344.552 38.2745 302.872C20.6245 275.801 7.99554 246.7 2.53254 214.719C-9.75612 142.779 23.0579 67.3549 92.663 34.3726C117.256 22.719 143.39 18.6203 170.515 19.0887C245.092 20.3764 314.025 69.5651 339.222 139.864C339.612 140.952 340.047 142.025 340.676 143.664C342.62 139.197 344.273 135.136 346.13 131.17C368.919 82.5072 403.692 45.911 454.72 27.1692C514.104 5.35802 571.469 10.1343 624.854 45.2845C659.86 68.3338 680.04 101.972 689.098 142.423C696.756 176.621 694.311 210.026 679.103 241.976C673.835 253.044 666.274 262.467 656.143 270.794C658.027 263.891 660.053 257.783 661.347 251.524C677.806 171.871 637.783 89.7547 553.804 64.9985C509.116 51.8248 466.497 59.1434 426.218 81.5297C394.986 98.8886 371.397 124.4 351.235 153.384C346.423 160.302 341.856 167.391 336.843 174.902C336.187 173.616 335.598 172.575 335.112 171.489C317.476 132.085 290.74 100.825 252.612 79.9548C225.873 65.3187 197.064 59.0389 166.755 61.4479C105.498 66.3168 59.6793 109.654 46.273 165.706C35.7315 209.78 45.5097 250.816 66.8397 289.78C83.5843 320.368 106.51 345.961 132.113 369.179C147.382 383.025 163.655 395.764 179.486 408.989C180.07 409.477 180.756 409.844 181.914 410.612C181.914 368.275 181.914 326.561 181.914 284.551C234.669 284.551 287.09 284.551 339.049 284.551C341.758 294.558 344.028 304.676 347.277 314.468C350.728 324.871 356.876 333.853 365.396 340.807C369.023 343.768 373.639 345.516 377.901 347.597C378.142 347.537 378.287 347.695 378.432 347.853C378.373 347.638 378.313 347.422 378.254 347.207Z" fill="#F80202"/>
<path d="M589.784 147.615C610.614 165.767 623.57 188.165 629.611 214.698C635.57 240.867 634.428 266.622 624.729 292.734C637.582 284.303 650.426 278.29 664.583 275.712C706.66 268.051 746.599 285.771 762.385 323.753C776.233 357.074 771.51 389.448 750.74 419.001C733.548 443.462 709.559 459.605 683.003 472.328C648.001 489.098 610.869 499.127 572.924 506.153C546.21 511.1 519.317 515.171 492.409 518.952C473.176 521.655 453.782 523.199 434.466 525.322C426.414 526.206 418.386 527.322 410.33 528.165C408.713 528.335 407.017 527.749 405.392 526.457C439.602 519.396 473.853 512.526 508.012 505.228C552.772 495.666 597.594 486.231 640.32 469.198C664.336 459.625 687.147 447.92 706.224 430.034C722.132 415.12 733.506 397.67 736.597 375.526C741.925 337.347 720.869 306.327 684.733 297.365C661.663 291.643 639.343 295.197 617.773 304.571C616.482 305.132 615.202 305.716 613.179 306.619C619.042 288.627 620.124 270.87 619.157 252.926C616.346 200.759 581.331 158.444 534.063 147.686C505.046 141.081 477.808 147.271 452.484 162.503C451.152 163.305 449.856 164.167 447.486 165.673C453.029 153.729 460.645 145.069 470.21 138.338C501.626 116.23 534.51 116.795 567.877 133.304C575.537 137.093 582.326 142.642 589.784 147.615Z" fill="#F87514"/>
<path d="M510.213 366.235C512.723 376.263 515.884 386.049 523.738 393.307C526.889 396.218 530.796 398.311 535.104 399.924C533.68 395.296 532.256 390.668 530.741 385.746C534.993 385.944 538.789 386.121 542.585 386.298C536.349 381.379 532.417 375.397 530.145 367.443C529.831 363.021 532.285 363.239 534.714 363.244C546.175 363.269 557.636 363.289 569.097 363.194C570.822 363.18 572.542 362.551 574.265 362.206C574.913 362.064 575.556 361.867 576.212 361.798C576.683 361.748 577.172 361.87 578.198 361.966C578.198 387.429 578.198 412.862 577.723 438.845C561.202 439.588 545.157 439.878 529.11 439.956C498.004 440.109 466.896 440.06 435.791 440.319C431.362 440.356 430.125 439.044 430.168 434.662C430.387 412.531 430.286 390.396 430.317 368.263C430.319 366.66 430.476 365.057 430.549 363.677C431.409 363.369 431.721 363.161 432.033 363.16C456.662 363.11 481.291 363.023 505.918 363.179C507.356 363.188 508.782 365.17 510.213 366.235Z" fill="#F80101"/>
<path d="M305.581 218.238C304.636 221.192 303.596 224.119 302.767 227.106C301.19 232.787 302.281 237.961 306.227 242.381C312.023 248.872 320.954 247.292 324.136 239.19C324.946 237.127 325.279 234.878 325.98 232.129C332.987 240.518 337.515 249.374 338.293 260.796C338.198 264.026 337.945 266.388 338.229 268.684C338.763 272.992 337.342 274.436 332.79 274.357C316.637 274.079 300.475 274.232 284.317 274.313C282.58 274.322 280.847 274.933 279.111 275.265C278.744 275.337 278.376 275.409 277.245 275.317C240.606 275.22 204.73 275.287 168.854 275.354C168.315 274.893 167.776 274.432 167.201 273.217C167.161 255.954 167.157 239.444 167.153 222.934C168.734 221.333 170.316 219.733 172.738 218.174C217.579 218.222 261.58 218.23 305.581 218.238Z" fill="#F90202"/>
<path d="M264.332 177.082C254.758 171.7 245.42 166.663 234.503 166.092C229.691 165.841 224.772 165.594 221.804 170.773C218.764 176.076 220.562 180.722 223.606 185.123C231.408 196.405 242.612 202.888 255.286 207.239C258.58 208.37 261.848 209.576 265.123 211.748C262.683 211.584 260.202 211.649 257.809 211.219C242.944 208.547 228.304 205.06 215.834 195.945C207.11 189.569 201.441 181.391 202.115 169.869C202.482 163.61 204.893 158.478 208.998 153.816C211.793 150.642 214.388 147.167 216.416 143.466C220.51 135.995 226.684 132.952 235.057 134.634C248.602 137.356 260.081 144.024 270.476 152.827C283.509 163.863 294.959 176.33 303.961 190.879C306.637 195.204 308.498 200.032 310.445 204.038C313.554 202.84 316.92 200.522 320.274 200.54C323.556 200.557 326.825 202.955 329.513 204.066C344.077 175.865 364.542 152.71 394.472 138.971C398.735 137.014 403.651 136.208 408.36 135.557C415.586 134.558 420.742 137.724 423.963 143.772C425.889 147.39 428.062 150.985 430.709 154.093C443.214 168.78 440.968 186.58 424.912 197.386C413.677 204.946 400.87 208.192 387.717 210.227C382.788 210.99 377.774 211.203 372.717 211.123C385.777 208.213 398.24 204.026 408.692 195.569C412.736 192.297 416.172 188.051 419.157 183.744C424.582 175.915 418.737 164.518 408.782 166.294C402.02 167.5 395.027 168.716 388.82 171.467C371.993 178.925 357.096 189.543 343.824 202.264C340.322 205.621 337.583 209.938 335.132 214.183C332.445 218.839 328.304 219.822 323.731 219.65C315.994 219.36 308.89 216.793 304.002 210.621C293.086 196.836 279.421 186.428 264.332 177.082Z" fill="#F50404"/>
<path d="M457.639 218.177C461.846 218.87 463.433 221.835 463.463 225.597C463.592 241.332 463.594 257.069 463.476 272.803C463.47 273.679 461.974 274.543 460.395 275.039C457.811 274.531 456.004 274.282 454.197 274.28C427.936 274.251 401.674 274.254 375.413 274.25C373.484 274.25 371.554 274.25 370.205 274.25C369.167 271.966 368.509 270.518 367.851 269.07C364.098 248.725 353.939 232.61 336.419 221.311C335.793 220.907 335.597 219.838 335.725 218.679C376.713 218.245 417.176 218.211 457.639 218.177Z" fill="#F90202"/>
<path d="M486.153 323.375C486.812 323.753 488.01 324.115 488.022 324.513C488.051 325.436 487.366 326.355 487.217 327.313C486.391 332.662 488.414 336.575 492.264 337.229C496.287 337.912 498.261 335.85 499.517 329.349C503.88 334.047 507.309 338.943 508.283 346.064C507.997 354.953 509.489 354.22 500.64 354.234C479.708 354.268 458.776 354.246 437.845 354.33C435.95 354.338 434.057 354.947 432.164 355.277C432.164 355.277 432.191 355.236 431.796 355.225C428.692 354.892 425.981 354.571 423.323 354.256C423.323 343.922 423.323 333.94 423.323 323.957C423.801 323.902 424.278 323.846 425.476 323.999C444.767 324.213 463.339 324.236 481.91 324.185C483.325 324.181 484.739 323.657 486.153 323.375Z" fill="#F80303"/>
<path d="M587.164 354.491C586.443 355.196 585.755 355.702 585.066 355.704C565.912 355.746 546.757 355.738 527.093 355.738C524.892 342.399 518.916 331.05 505.22 323.298C509.176 323.298 511.733 323.299 514.29 323.298C536.45 323.286 558.611 323.265 580.771 323.265C586.564 323.265 588.289 324.902 588.132 330.596C587.917 338.418 587.518 346.236 587.164 354.491Z" fill="#F50505"/>
<path d="M538.988 317.261C535.308 317.7 532.057 318.127 528.806 318.554C528.672 318.184 528.538 317.815 528.404 317.446C529.981 316.716 531.637 316.119 533.12 315.231C538.03 312.291 543.11 309.556 547.666 306.132C550.583 303.939 551.795 300.323 549.73 296.766C547.628 293.146 543.895 293.795 540.766 294.649C537.141 295.639 533.495 297.052 530.29 298.995C520.785 304.759 511.342 310.603 504.788 320.086C501.795 324.416 493.225 322.796 488.673 317.548C481.25 308.99 472.333 302.593 461.487 299.064C460.238 298.658 458.936 298.371 457.637 298.169C454.326 297.655 450.756 296.925 448.837 300.676C446.836 304.585 448.676 307.98 451.667 310.309C456.003 313.687 460.766 316.518 464.99 319.343C457.163 319.089 449.352 316.668 442.878 311.068C437.655 306.55 437.682 297.466 442.441 291.595C443.277 290.564 444.36 289.713 445.089 288.619C450.162 281.008 453.616 279.557 462.009 283.324C475.899 289.561 485.052 300.702 492.012 313.163C495.477 313.163 499.105 313.163 502.64 313.163C503.609 311.006 504.569 307.987 506.201 305.39C512.921 294.695 521.474 285.651 532.211 278.974C535.446 276.963 539.479 275.908 543.291 275.231C548.635 274.281 552.522 276.745 554.907 281.73C556.825 285.739 559.834 289.391 560.963 293.577C563.12 301.577 559.297 309.076 551.504 313.004C547.722 314.91 543.461 315.865 538.988 317.261Z" fill="#F20605"/>
<path d="M367.84 269.539C368.509 270.518 369.167 271.966 370.205 274.25C371.554 274.25 373.484 274.25 375.413 274.25C401.674 274.254 427.936 274.25 454.197 274.28C456.004 274.282 457.811 274.531 459.936 274.946C432.476 275.253 404.699 275.279 376.922 275.304C374.13 275.306 371.338 275.304 368.44 275.304C368.202 273.244 368.015 271.626 367.84 269.539Z" fill="#F90202"/>
<path d="M432.625 355.381C434.057 354.947 435.95 354.338 437.845 354.33C458.776 354.246 479.708 354.268 500.64 354.235C509.489 354.22 507.997 354.953 508.261 346.443C508.683 348.842 509.07 351.71 509.58 355.484C483.561 355.484 458.323 355.484 432.625 355.381Z" fill="#F90202"/>
<path d="M279.577 275.369C280.846 274.933 282.58 274.322 284.317 274.313C300.475 274.231 316.637 274.079 332.79 274.357C337.342 274.435 338.763 272.992 338.229 268.684C337.945 266.388 338.198 264.026 338.224 261.185C338.685 265.371 339.13 270.066 339.642 275.474C319.237 275.474 299.64 275.474 279.577 275.369Z" fill="#F90202"/>
<path d="M485.693 323.294C484.739 323.658 483.325 324.182 481.91 324.186C463.339 324.236 444.767 324.213 425.821 324.113C445.375 323.749 465.304 323.481 485.693 323.294Z" fill="#F90202"/>
<path d="M573.795 362.111C572.542 362.551 570.822 363.18 569.096 363.194C557.636 363.289 546.174 363.269 534.713 363.244C532.285 363.239 529.83 363.021 530.146 367.081C529.487 365.911 528.852 364.298 527.955 362.017C543.482 362.017 558.404 362.017 573.795 362.111Z" fill="#F90202"/>
<path d="M422.91 323.954C423.323 333.94 423.323 343.923 423.323 354.256C425.981 354.571 428.692 354.892 431.816 355.24C428.961 355.443 425.693 355.62 422.497 355.794C422.497 344.829 422.497 334.39 422.91 323.954Z" fill="#F80303"/>
<path d="M415.103 358.987C414.897 359.033 414.633 358.82 414.286 358.36C414.484 358.318 414.764 358.523 415.103 358.987Z" fill="#DE0303"/>
<path d="M416.099 360.026C415.849 360.178 415.586 359.996 415.287 359.498C415.465 359.446 415.743 359.616 416.099 360.026Z" fill="#DE0303"/>
<path d="M378.285 347.192C378.313 347.422 378.373 347.638 378.432 347.853C378.287 347.695 378.142 347.537 378.189 347.267C378.381 347.155 378.316 347.178 378.285 347.192Z" fill="#FFFCFC"/>
<path d="M1021.38 213.37C1018.72 204.746 1015.04 197.027 1010.36 190.212C1005.78 183.292 1000.24 177.383 993.748 172.485C987.36 167.587 980.013 163.914 971.709 161.465C963.404 158.91 954.354 157.632 944.559 157.632C926.991 157.632 911.34 162.051 897.605 170.888C883.87 179.725 873.064 192.714 865.185 209.856C857.412 226.892 853.526 247.653 853.526 272.142C853.526 296.843 857.412 317.764 865.185 334.906C872.957 352.048 883.764 365.091 897.605 374.034C911.446 382.871 927.523 387.29 945.836 387.29C962.446 387.29 976.819 384.096 988.957 377.707C1001.2 371.319 1010.62 362.269 1017.22 350.557C1023.83 338.739 1027.13 324.898 1027.13 309.034L1040.54 311.11H951.745V264.795H1084.46V304.083C1084.46 332.085 1078.5 356.307 1066.57 376.749C1054.65 397.191 1038.25 412.949 1017.38 424.022C996.516 434.989 972.56 440.472 945.517 440.472C915.386 440.472 888.928 433.711 866.143 420.189C843.465 406.561 825.737 387.236 812.961 362.216C800.291 337.089 793.956 307.277 793.956 272.78C793.956 246.376 797.682 222.792 805.135 202.031C812.695 181.269 823.235 163.648 836.757 149.168C850.279 134.581 866.143 123.509 884.35 115.949C902.556 108.283 922.36 104.45 943.76 104.45C961.86 104.45 978.736 107.112 994.387 112.436C1010.04 117.653 1023.93 125.106 1036.07 134.794C1048.31 144.483 1058.38 155.982 1066.25 169.291C1074.13 182.6 1079.3 197.293 1081.75 213.37H1021.38ZM1154.57 436V190.692H1212.39V436H1154.57ZM1183.64 155.876C1174.48 155.876 1166.6 152.841 1160 146.772C1153.4 140.597 1150.1 133.197 1150.1 124.573C1150.1 115.843 1153.4 108.443 1160 102.374C1166.6 96.1988 1174.48 93.1111 1183.64 93.1111C1192.9 93.1111 1200.78 96.1988 1207.28 102.374C1213.88 108.443 1217.18 115.843 1217.18 124.573C1217.18 133.197 1213.88 140.597 1207.28 146.772C1200.78 152.841 1192.9 155.876 1183.64 155.876ZM1396.09 190.692V235.409H1251.07V190.692H1396.09ZM1287.33 436V167.534C1287.33 151.031 1290.73 137.296 1297.55 126.33C1304.47 115.364 1313.73 107.165 1325.34 101.735C1336.94 96.3053 1349.83 93.5903 1363.99 93.5903C1373.99 93.5903 1382.89 94.3888 1390.66 95.9859C1398.43 97.5829 1404.18 99.0203 1407.91 100.298L1396.41 145.016C1393.96 144.27 1390.87 143.525 1387.14 142.78C1383.42 141.928 1379.27 141.502 1374.69 141.502C1363.93 141.502 1356.32 144.111 1351.85 149.328C1347.48 154.438 1345.3 161.785 1345.3 171.367V436H1287.33ZM1563.86 190.692V235.409H1422.84V190.692H1563.86ZM1457.65 131.92H1515.47V362.216C1515.47 369.988 1516.64 375.951 1518.98 380.103C1521.43 384.149 1524.62 386.917 1528.56 388.408C1532.5 389.898 1536.87 390.643 1541.66 390.643C1545.28 390.643 1548.58 390.377 1551.56 389.845C1554.65 389.313 1556.99 388.833 1558.59 388.408L1568.33 433.604C1565.24 434.669 1560.82 435.84 1555.07 437.118C1549.43 438.396 1542.51 439.141 1534.31 439.354C1519.83 439.78 1506.79 437.597 1495.19 432.806C1483.58 427.908 1474.37 420.349 1467.56 410.128C1460.85 399.906 1457.55 387.13 1457.65 371.798V131.92ZM1888.82 108.922V436H1836.12L1682 213.21H1679.29V436H1620.04V108.922H1673.06L1827.01 331.872H1829.89V108.922H1888.82ZM2059.43 440.791C2034.83 440.791 2013.59 435.681 1995.7 425.459C1977.92 415.132 1964.24 400.545 1954.66 381.7C1945.08 362.748 1940.29 340.443 1940.29 314.783C1940.29 289.55 1945.08 267.404 1954.66 248.345C1964.35 229.181 1977.87 214.275 1995.22 203.628C2012.58 192.874 2032.97 187.497 2056.39 187.497C2071.51 187.497 2085.78 189.946 2099.19 194.844C2112.72 199.635 2124.64 207.088 2134.97 217.203C2145.4 227.317 2153.6 240.2 2159.56 255.852C2165.52 271.396 2168.51 289.922 2168.51 311.429V329.157H1967.44V290.188H2113.09C2112.98 279.115 2110.59 269.267 2105.9 260.643C2101.22 251.912 2094.67 245.045 2086.26 240.041C2077.95 235.037 2068.26 232.535 2057.19 232.535C2045.37 232.535 2034.99 235.409 2026.05 241.159C2017.1 246.802 2010.13 254.255 2005.13 263.517C2000.23 272.674 1997.73 282.735 1997.62 293.702V327.719C1997.62 341.986 2000.23 354.231 2005.45 364.452C2010.66 374.566 2017.96 382.339 2027.33 387.769C2036.7 393.092 2047.66 395.754 2060.23 395.754C2068.64 395.754 2076.25 394.583 2083.06 392.241C2089.88 389.792 2095.79 386.225 2100.79 381.54C2105.79 376.856 2109.57 371.053 2112.13 364.132L2166.11 370.201C2162.7 384.468 2156.21 396.925 2146.63 407.572C2137.15 418.113 2125.01 426.311 2110.21 432.167C2095.41 437.916 2078.48 440.791 2059.43 440.791ZM2411.3 255.532L2358.6 261.282C2357.11 255.958 2354.5 250.954 2350.77 246.269C2347.15 241.585 2342.25 237.805 2336.08 234.93C2329.9 232.055 2322.34 230.618 2313.4 230.618C2301.37 230.618 2291.25 233.227 2283.05 238.444C2274.96 243.661 2270.97 250.422 2271.08 258.726C2270.97 265.86 2273.58 271.662 2278.9 276.134C2284.33 280.606 2293.28 284.279 2305.73 287.154L2347.58 296.098C2370.79 301.102 2388.04 309.034 2399.32 319.894C2410.71 330.754 2416.46 344.968 2416.57 362.535C2416.46 377.973 2411.94 391.602 2402.99 403.42C2394.16 415.132 2381.86 424.288 2366.1 430.889C2350.34 437.491 2332.24 440.791 2311.8 440.791C2281.78 440.791 2257.61 434.509 2239.3 421.946C2220.98 409.276 2210.07 391.655 2206.56 369.083L2262.93 363.653C2265.49 374.726 2270.92 383.084 2279.22 388.727C2287.53 394.37 2298.33 397.191 2311.64 397.191C2325.38 397.191 2336.4 394.37 2344.7 388.727C2353.11 383.084 2357.32 376.11 2357.32 367.806C2357.32 360.778 2354.6 354.976 2349.17 350.398C2343.85 345.819 2335.55 342.306 2324.26 339.857L2282.42 331.073C2258.89 326.175 2241.48 317.924 2230.19 306.319C2218.91 294.607 2213.32 279.807 2213.42 261.92C2213.32 246.802 2217.42 233.706 2225.72 222.633C2234.13 211.453 2245.79 202.829 2260.7 196.76C2275.71 190.585 2293.01 187.497 2312.6 187.497C2341.35 187.497 2363.97 193.619 2380.48 205.864C2397.09 218.108 2407.36 234.664 2411.3 255.532ZM2586.74 190.692V235.409H2445.72V190.692H2586.74ZM2480.53 131.92H2538.35V362.216C2538.35 369.988 2539.52 375.951 2541.86 380.103C2544.31 384.149 2547.5 386.917 2551.44 388.408C2555.38 389.898 2559.75 390.643 2564.54 390.643C2568.16 390.643 2571.46 390.377 2574.44 389.845C2577.53 389.313 2579.87 388.833 2581.47 388.408L2591.21 433.604C2588.12 434.669 2583.7 435.84 2577.95 437.118C2572.31 438.396 2565.39 439.141 2557.19 439.354C2542.71 439.78 2529.67 437.597 2518.06 432.806C2506.46 427.908 2497.25 420.349 2490.43 410.128C2483.73 399.906 2480.43 387.13 2480.53 371.798V131.92Z" fill="url(#paint0_linear_16_22)"/>
<defs>
<linearGradient id="paint0_linear_16_22" x1="770" y1="272" x2="2606" y2="272" gradientUnits="userSpaceOnUse">
<stop stop-color="#F80202"/>
<stop offset="1" stop-color="#F87514"/>
</linearGradient>
</defs>
</svg>
